<svg width="689" height="477" viewBox="0 0 689 477" fill="none" xmlns="http://www.w3.org/2000/svg">
<g clip-path="url(#clip0_3_32)">
<path d="M-47.0366 425.007C-90.7063 336.491 -63.5424 236.06 42.4671 200.784C123.922 173.677 248.846 171.406 300.829 88.1398C385.092 -46.8359 595.553 -31.743 671.144 167.839C739.926 349.443 597.073 638.02 403.872 538.756C242.875 456.039 216.973 547.995 112.304 541.307C31.5859 536.149 -32.3047 454.868 -47.0366 425.007Z" fill="#F3F5FD"/>
<path d="M-47.0366 425.007C-90.7063 336.491 -63.5424 236.06 42.4671 200.784C123.922 173.677 248.846 171.406 300.829 88.1398C385.092 -46.8359 595.553 -31.743 671.144 167.839C739.926 349.443 597.073 638.02 403.872 538.756C242.875 456.039 216.973 547.995 112.304 541.307C31.5859 536.149 -32.3047 454.868 -47.0366 425.007Z" fill="#F43910"/>
<g opacity="0.75">
<path d="M-47.0366 425.007C-90.7063 336.491 -63.5424 236.06 42.4671 200.784C123.922 173.677 248.846 171.406 300.829 88.1398C385.092 -46.8359 595.553 -31.743 671.144 167.839C739.926 349.443 597.073 638.02 403.872 538.756C242.875 456.039 216.973 547.995 112.304 541.307C31.5859 536.149 -32.3047 454.868 -47.0366 425.007Z" fill="#292A2E"/>
</g>
<g opacity="0.18">
<path d="M183.194 205.063C184.924 205.063 186.327 203.66 186.327 201.93C186.327 200.199 184.924 198.797 183.194 198.797C181.464 198.797 180.061 200.199 180.061 201.93C180.061 203.66 181.464 205.063 183.194 205.063Z" fill="white"/>
<path d="M212.526 265.655C215.672 265.655 218.222 263.104 218.222 259.959C218.222 256.813 215.672 254.263 212.526 254.263C209.38 254.263 206.83 256.813 206.83 259.959C206.83 263.104 209.38 265.655 212.526 265.655Z" fill="white"/>
<path d="M392.598 106.816C395.744 106.816 398.294 104.266 398.294 101.12C398.294 97.9743 395.744 95.4241 392.598 95.4241C389.452 95.4241 386.902 97.9743 386.902 101.12C386.902 104.266 389.452 106.816 392.598 106.816Z" fill="white"/>
<path d="M212.045 424.143C213.674 424.143 214.994 422.823 214.994 421.194C214.994 419.565 213.674 418.245 212.045 418.245C210.416 418.245 209.096 419.565 209.096 421.194C209.096 422.823 210.416 424.143 212.045 424.143Z" fill="white"/>
<path d="M472.027 357.133C476.611 357.133 480.327 353.417 480.327 348.833C480.327 344.249 476.611 340.533 472.027 340.533C467.443 340.533 463.727 344.249 463.727 348.833C463.727 353.417 467.443 357.133 472.027 357.133Z" fill="white"/>
<path d="M533.803 77.3567C538.356 77.3567 542.047 73.6654 542.047 69.1119C542.047 64.5584 538.356 60.867 533.803 60.867C529.249 60.867 525.558 64.5584 525.558 69.1119C525.558 73.6654 529.249 77.3567 533.803 77.3567Z" fill="white"/>
<path d="M480.381 223.031C482.687 223.031 484.557 221.161 484.557 218.855C484.557 216.548 482.687 214.678 480.381 214.678C478.074 214.678 476.204 216.548 476.204 218.855C476.204 221.161 478.074 223.031 480.381 223.031Z" fill="white"/>
<path d="M333.81 317.108C336.841 317.108 339.298 314.651 339.298 311.62C339.298 308.589 336.841 306.132 333.81 306.132C330.779 306.132 328.322 308.589 328.322 311.62C328.322 314.651 330.779 317.108 333.81 317.108Z" fill="white"/>
<path d="M276.963 471.587C279.24 471.587 281.085 469.741 281.085 467.465C281.085 465.188 279.24 463.343 276.963 463.343C274.687 463.343 272.841 465.188 272.841 467.465C272.841 469.741 274.687 471.587 276.963 471.587Z" fill="white"/>
<path d="M561.847 253.485C566.636 253.485 570.518 249.603 570.518 244.814C570.518 240.025 566.636 236.143 561.847 236.143C557.058 236.143 553.176 240.025 553.176 244.814C553.176 249.603 557.058 253.485 561.847 253.485Z" fill="white"/>
<path d="M608.268 136.335C611.085 136.335 613.369 134.051 613.369 131.234C613.369 128.417 611.085 126.133 608.268 126.133C605.451 126.133 603.167 128.417 603.167 131.234C603.167 134.051 605.451 136.335 608.268 136.335Z" fill="white"/>
<path d="M322.776 424.857C325.839 424.857 328.321 422.374 328.321 419.312C328.321 416.249 325.839 413.767 322.776 413.767C319.714 413.767 317.231 416.249 317.231 419.312C317.231 422.374 319.714 424.857 322.776 424.857Z" fill="white"/>
<path d="M635.117 346.81C639.671 346.81 643.362 343.119 643.362 338.565C643.362 334.012 639.671 330.32 635.117 330.32C630.564 330.32 626.872 334.012 626.872 338.565C626.872 343.119 630.564 346.81 635.117 346.81Z" fill="white"/>
<path d="M622.589 228.811C625.406 228.811 627.69 226.527 627.69 223.71C627.69 220.893 625.406 218.609 622.589 218.609C619.771 218.609 617.488 220.893 617.488 223.71C617.488 226.527 619.771 228.811 622.589 228.811Z" fill="white"/>
</g>
<path d="M520.867 145.863C531.963 149.679 543.281 152.817 554.758 155.26C549.565 160.373 543.052 163.941 535.948 165.565C528.844 167.188 521.429 166.804 514.53 164.456C507.632 162.107 501.523 157.885 496.886 152.264C492.249 146.642 489.267 139.842 488.273 132.622C498.859 137.692 509.744 142.114 520.867 145.863Z" fill="#0CBC8B"/>
<path d="M564.373 139.937C562.901 144.279 560.676 148.327 557.8 151.896C545.7 149.471 533.778 146.227 522.118 142.187C510.412 138.271 498.985 133.565 487.916 128.102C487.815 123.519 488.523 118.953 490.006 114.616C490.94 111.871 492.174 109.238 493.686 106.764C494.424 105.552 495.23 104.382 496.099 103.259C501.11 96.7783 508.021 92.0257 515.865 89.6658C523.71 87.3059 532.096 87.4567 539.851 90.0971C547.605 92.7376 554.341 97.7356 559.115 104.392C563.89 111.049 566.464 119.031 566.479 127.223C566.481 128.643 566.405 130.061 566.249 131.472C565.937 134.355 565.308 137.193 564.373 139.937Z" fill="#0CBC8B"/>
<path d="M594.607 152.671C592.186 159.782 575.541 159.559 554.758 155.26C555.838 154.202 556.854 153.079 557.8 151.898C577.508 155.707 589.737 154.93 590.932 151.42C592.099 147.994 583.347 140.216 566.248 131.473C566.403 130.062 566.48 128.644 566.478 127.224C584.569 136.234 596.949 145.79 594.607 152.671Z" fill="white"/>
<path d="M557.8 151.898C556.854 153.079 555.838 154.202 554.758 155.26C543.281 152.817 531.963 149.679 520.867 145.863C509.744 142.115 498.859 137.694 488.273 132.625C488.063 131.128 487.944 129.618 487.916 128.106C498.985 133.569 510.412 138.275 522.118 142.191C533.778 146.23 545.7 149.473 557.8 151.898Z" fill="white"/>
<path d="M488.273 132.625C469.184 123.349 455.863 113.368 458.284 106.258C460.627 99.3769 476.275 99.3639 496.098 103.263C495.229 104.385 494.423 105.555 493.684 106.768C474.805 103.261 463.125 104.085 461.958 107.509C460.764 111.019 469.986 119.1 487.916 128.106C487.944 129.618 488.063 131.128 488.273 132.625Z" fill="white"/>
<path d="M333.81 240.341C353.294 240.341 369.089 224.547 369.089 205.063C369.089 185.579 353.294 169.784 333.81 169.784C314.326 169.784 298.532 185.579 298.532 205.063C298.532 224.547 314.326 240.341 333.81 240.341Z" fill="#F43910"/>
<g opacity="0.79">
<path d="M333.81 240.341C353.294 240.341 369.089 224.547 369.089 205.063C369.089 185.579 353.294 169.784 333.81 169.784C314.326 169.784 298.532 185.579 298.532 205.063C298.532 224.547 314.326 240.341 333.81 240.341Z" fill="white"/>
</g>
<g opacity="0.18">
<path d="M352.982 197.977C357.052 197.977 360.351 194.678 360.351 190.608C360.351 186.539 357.052 183.24 352.982 183.24C348.913 183.24 345.613 186.539 345.613 190.608C345.613 194.678 348.913 197.977 352.982 197.977Z" fill="#F43910"/>
</g>
<g opacity="0.18">
<path d="M347.233 172.433C347.192 173.178 346.987 173.904 346.631 174.56C346.276 175.216 345.78 175.785 345.178 176.227C344.577 176.668 343.885 176.971 343.153 177.113C342.421 177.255 341.666 177.233 340.943 177.049C340.22 176.865 339.547 176.523 338.972 176.048C338.397 175.572 337.934 174.976 337.617 174.3C337.3 173.625 337.137 172.888 337.139 172.142C337.141 171.396 337.308 170.66 337.628 169.986C340.93 170.34 344.164 171.164 347.233 172.433Z" fill="#F43910"/>
</g>
<g opacity="0.18">
<path d="M321.458 213.656C330.116 213.656 337.135 206.637 337.135 197.979C337.135 189.32 330.116 182.301 321.458 182.301C312.799 182.301 305.781 189.32 305.781 197.979C305.781 206.637 312.799 213.656 321.458 213.656Z" fill="#F43910"/>
</g>
<path opacity="0.18" d="M359.832 228.882C356.379 232.673 352.134 235.657 347.398 237.621C346.717 236.812 346.212 235.87 345.914 234.856C345.616 233.841 345.533 232.775 345.669 231.726C345.806 230.677 346.159 229.668 346.706 228.763C347.253 227.858 347.982 227.077 348.847 226.469C349.713 225.86 350.695 225.439 351.732 225.231C352.769 225.022 353.837 225.032 354.87 225.259C355.903 225.486 356.878 225.925 357.732 226.549C358.586 227.173 359.301 227.967 359.832 228.882Z" fill="#F43910"/>
<path d="M603.614 381.528C604.238 383.722 604.645 385.972 604.827 388.245C605.45 396.169 603.311 404.063 598.773 410.589C594.236 417.114 587.58 421.868 579.935 424.042C572.29 426.217 564.129 425.679 556.836 422.519C549.543 419.359 543.569 413.772 539.928 406.707C537.617 402.204 536.32 397.25 536.126 392.192C535.85 384.5 538.162 376.937 542.69 370.712C547.218 364.488 553.703 359.961 561.106 357.855C568.51 355.749 576.406 356.185 583.533 359.094C590.659 362.003 596.605 367.217 600.42 373.903C601.786 376.307 602.859 378.867 603.614 381.528Z" fill="#F43910"/>
<g opacity="0.64">
<path d="M603.614 381.528C604.238 383.722 604.645 385.972 604.827 388.245C605.45 396.169 603.311 404.063 598.773 410.589C594.236 417.114 587.58 421.868 579.935 424.042C572.29 426.217 564.129 425.679 556.836 422.519C549.543 419.359 543.569 413.772 539.928 406.707C537.617 402.204 536.32 397.25 536.126 392.192C535.85 384.5 538.162 376.937 542.69 370.712C547.218 364.488 553.703 359.961 561.106 357.855C568.51 355.749 576.406 356.185 583.533 359.094C590.659 362.003 596.605 367.217 600.42 373.903C601.786 376.307 602.859 378.867 603.614 381.528Z" fill="white"/>
</g>
<g opacity="0.28">
<path d="M600.42 373.903L536.125 392.196C535.942 387.293 536.818 382.409 538.694 377.875L590.698 363.08C594.679 365.947 597.995 369.638 600.42 373.903Z" fill="white"/>
</g>
<g opacity="0.28">
<path d="M604.827 388.245C605.207 393.028 604.578 397.836 602.983 402.361L548.925 417.739C545.188 414.731 542.122 410.973 539.928 406.707L604.827 388.245Z" fill="white"/>
</g>
<path d="M171.961 272.25C171.736 272.221 169.247 313.527 121.261 309.925C88.0396 307.437 76.1948 272.191 75.4335 272.191C79.0159 271.43 83.4423 270.275 85.2009 269.879C91.0455 268.562 98.3413 263.739 100.027 253.58C100.999 247.725 99.3509 217.771 99.8576 211.847L150.852 223.229C150.139 235.74 145.152 264.745 162.63 269.878C165.539 270.727 168.671 271.508 171.961 272.25Z" fill="#E98862"/>
<path opacity="0.52" d="M151.566 258.025C150.768 255.45 150.254 252.796 150.033 250.11C149.472 243.98 149.584 237.808 150.366 231.702C140.002 230.303 130.238 226.026 122.183 219.355C121.236 222.852 116.028 238.132 117.47 241.455C120.195 247.738 133.002 258.025 151.566 258.025Z" fill="#0C0C0C"/>
<path d="M167.517 166.778C167.517 166.778 179.235 152.812 177.08 127.366C175.412 107.664 160.659 124.069 160.659 124.069C160.659 124.069 159.32 109.895 149.62 113.567C139.92 117.239 137.624 132.978 137.624 132.978" fill="#0C0C0C"/>
<path d="M98.1841 127.093C98.1841 127.093 49.6855 143.864 83.1632 207.109L87.631 206.391L96.7 204.935" fill="#0C0C0C"/>
<path d="M144.795 244.038C124.787 246.791 98.4701 239.802 92.0091 213.267L86.1791 189.324C79.7181 162.789 88.4168 137.885 113.401 131.801C138.385 125.717 162.297 142.682 168.758 169.216L171.339 179.816C172.162 183.471 172.735 187.178 173.053 190.91C173.969 200.77 175.322 215.768 171.093 227.098C167.101 237.794 157.579 242.28 144.795 244.038Z" fill="#E98862"/>
<path opacity="0.52" d="M148.295 217.62C152.383 216.872 156.238 215.174 159.55 212.663C159.689 212.561 159.782 212.409 159.808 212.238C159.834 212.068 159.792 211.894 159.691 211.755C159.589 211.616 159.436 211.523 159.266 211.497C159.096 211.47 158.922 211.513 158.783 211.614C151.606 216.839 144.266 218.004 137.557 214.987C137.421 214.922 137.281 214.865 137.139 214.814C136.976 214.768 136.8 214.787 136.651 214.869C136.501 214.951 136.39 215.088 136.341 215.251C136.291 215.413 136.308 215.589 136.387 215.74C136.466 215.891 136.601 216.004 136.763 216.057C136.815 216.075 136.902 216.116 137.024 216.171C140.553 217.765 144.478 218.27 148.295 217.62Z" fill="#0C0C0C"/>
<path opacity="0.52" d="M149.486 223.658C150.227 223.535 150.956 223.349 151.666 223.102C151.821 223.04 151.947 222.921 152.016 222.769C152.086 222.618 152.095 222.445 152.04 222.287C151.986 222.129 151.873 221.998 151.724 221.921C151.576 221.845 151.404 221.828 151.243 221.875C146.971 223.349 144.421 221.823 144.312 221.757C144.167 221.673 143.994 221.648 143.831 221.688C143.667 221.728 143.526 221.831 143.436 221.973C143.347 222.116 143.316 222.288 143.351 222.453C143.386 222.617 143.483 222.762 143.622 222.856C145.425 223.793 147.497 224.077 149.486 223.658Z" fill="#0C0C0C"/>
<path d="M164.5 182.513C166.249 182.513 167.667 181.095 167.667 179.346C167.667 177.597 166.249 176.179 164.5 176.179C162.751 176.179 161.333 177.597 161.333 179.346C161.333 181.095 162.751 182.513 164.5 182.513Z" fill="#0C0C0C"/>
<path d="M134.393 189.615C136.142 189.615 137.559 188.197 137.559 186.448C137.559 184.699 136.142 183.281 134.393 183.281C132.644 183.281 131.226 184.699 131.226 186.448C131.226 188.197 132.644 189.615 134.393 189.615Z" fill="#0C0C0C"/>
<path d="M95.5294 220.973C87.94 222.821 79.804 216.198 77.9549 208.605C76.1058 201.013 81.2421 195.327 88.8346 193.478L93.9877 197.613L102.059 219.385L95.5294 220.973Z" fill="#E98862"/>
<path d="M100.29 206.994C100.29 206.994 94.1978 168.745 105.081 163.792C112.33 160.496 133.253 167.038 149.586 159.851C156.731 156.708 164.252 156.924 165.785 160.288C166.393 161.62 166.428 140.463 151.22 127.911C139.107 117.919 107.83 121.506 94.8739 128.678C58.9967 148.533 87.6494 195.498 87.6494 195.498L92.3495 208.086L100.29 206.994Z" fill="#0C0C0C"/>
<g opacity="0.52">
<path d="M150.854 207.674L150.903 207.664C153.351 207.075 157.392 205.813 156.953 203.984C156.587 202.467 148.49 187.086 147.567 185.337C147.485 185.191 147.349 185.083 147.189 185.036C147.028 184.989 146.856 185.006 146.708 185.084C146.56 185.162 146.448 185.295 146.397 185.454C146.345 185.613 146.358 185.786 146.432 185.936C150.024 192.746 155.457 203.254 155.708 204.285C155.572 204.775 153.141 205.809 150.606 206.42C150.445 206.459 150.306 206.559 150.218 206.699C150.129 206.838 150.098 207.006 150.13 207.168C150.162 207.33 150.256 207.473 150.391 207.568C150.526 207.663 150.693 207.702 150.856 207.677L150.854 207.674Z" fill="#0C0C0C"/>
</g>
<path d="M154.585 173.935C156.324 172.6 158.384 171.748 160.558 171.463C161.663 171.309 162.785 171.324 163.886 171.506C165.008 171.687 166.103 172.008 167.146 172.461L167.227 172.493C167.493 172.601 167.791 172.6 168.057 172.493C168.323 172.385 168.537 172.178 168.654 171.916C168.77 171.654 168.781 171.357 168.683 171.087C168.585 170.817 168.386 170.596 168.129 170.47C166.941 169.842 165.679 169.367 164.372 169.055C163.043 168.734 161.674 168.614 160.309 168.699C158.94 168.769 157.588 169.027 156.289 169.465C154.948 169.903 153.677 170.529 152.514 171.326C152.149 171.576 151.899 171.961 151.818 172.396C151.737 172.831 151.832 173.28 152.082 173.645C152.333 174.009 152.718 174.259 153.152 174.34C153.587 174.421 154.036 174.326 154.401 174.076C154.435 174.052 154.469 174.027 154.502 173.999L154.585 173.935Z" fill="#0C0C0C"/>
<path d="M135.805 175.082C134.417 174.831 133 174.781 131.598 174.932C130.234 175.064 128.894 175.383 127.616 175.88C126.338 176.361 125.139 177.032 124.06 177.869C122.995 178.688 122.038 179.639 121.211 180.699C121.028 180.92 120.938 181.203 120.959 181.488C120.979 181.774 121.11 182.041 121.323 182.232C121.537 182.424 121.816 182.525 122.102 182.515C122.389 182.506 122.66 182.385 122.86 182.18L122.924 182.113C123.689 181.272 124.556 180.531 125.505 179.907C126.435 179.288 127.453 178.815 128.524 178.502C130.623 177.871 132.851 177.804 134.984 178.308L135.083 178.334C135.511 178.447 135.966 178.385 136.348 178.162C136.73 177.939 137.008 177.574 137.12 177.146C137.233 176.718 137.171 176.263 136.948 175.881C136.725 175.499 136.36 175.222 135.932 175.109C135.89 175.098 135.844 175.093 135.805 175.082Z" fill="#0C0C0C"/>
<path d="M141.151 143.979C146.516 141.505 147.913 133.097 144.271 125.2C140.629 117.302 133.327 112.906 127.962 115.38C122.597 117.855 121.2 126.263 124.842 134.16C128.484 142.058 135.786 146.454 141.151 143.979Z" fill="#0C0C0C"/>
<path d="M218.108 279.261C207.858 273.19 169.965 269.878 162.628 269.878C162.406 269.878 165.426 301.792 120.166 299.661C86.9104 298.089 85.5152 269.878 85.5152 269.878C85.5152 269.878 69.0484 270.943 58.0936 272.423C40.1627 274.853 23.5196 285.386 13.4388 302.919C3.33488 320.489 6.38598 332.226 10.4797 369.039C14.213 402.601 18.5444 472.247 20.3459 502.773C22.4617 504.421 24.6133 506.039 26.8007 507.626C28.1438 508.6 29.501 509.561 30.8722 510.508C30.9718 510.577 31.07 510.648 31.1704 510.716C32.5176 511.647 33.8778 512.563 35.251 513.465C35.3177 513.509 35.3821 513.554 35.4481 513.598C58.1113 528.475 84.1851 539.519 112.304 541.31C157.511 544.201 188.022 528.684 221.07 516.794C221.002 514.717 220.963 513.605 220.963 513.605L220.714 513.598H221.262C222.711 491.726 227.717 380.944 229.235 363.189C232.443 325.557 246.035 295.805 218.108 279.261Z" fill="#F43910"/>
<path d="M404.148 321.929C404.437 321.131 404.886 320.401 405.467 319.783C406.048 319.164 406.749 318.671 407.527 318.332C408.305 317.994 409.144 317.817 409.992 317.814C410.84 317.81 411.681 317.979 412.462 318.311C413.951 319.006 415.121 320.24 415.735 321.764C416.349 323.288 416.361 324.989 415.77 326.522L412.896 334.45L430.967 316.025C433.213 313.666 437.478 312.208 439.957 314.901C442.103 316.947 447.069 317.577 447.875 321.41C447.903 321.43 447.852 356.511 445.769 358.698C436.93 367.981 415.565 369.776 403.646 365.061L384.886 357.644L404.148 321.929Z" fill="#E98862"/>
<g opacity="0.1">
<path d="M404.148 321.929C404.437 321.131 404.886 320.401 405.467 319.783C406.048 319.164 406.749 318.671 407.527 318.332C408.305 317.994 409.144 317.817 409.992 317.814C410.84 317.81 411.681 317.979 412.462 318.311C413.951 319.006 415.121 320.24 415.735 321.764C416.349 323.288 416.361 324.989 415.77 326.522L412.896 334.45L430.967 316.025C433.213 313.666 437.478 312.208 439.957 314.901C442.103 316.947 447.069 317.577 447.875 321.41C447.903 321.43 447.852 356.511 445.769 358.698C436.93 367.981 415.565 369.776 403.646 365.061L384.886 357.644L404.148 321.929Z" fill="#0C0C0C"/>
</g>
<path d="M476.203 290.891C476.204 289.843 475.986 288.806 475.564 287.846C475.143 286.886 474.526 286.025 473.754 285.315C472.982 284.606 472.071 284.065 471.079 283.727C470.086 283.388 469.035 283.26 467.99 283.349L431.491 286.465C428.233 286.743 425.198 288.234 422.986 290.643C420.775 293.051 419.547 296.202 419.547 299.472V361.685C419.547 363.693 420.345 365.618 421.764 367.038C423.184 368.458 425.109 369.255 427.117 369.255C428.111 369.255 429.095 369.06 430.014 368.679C430.932 368.299 431.767 367.741 432.47 367.038C433.172 366.335 433.73 365.501 434.11 364.582C434.491 363.664 434.686 362.679 434.686 361.685V313.164C434.686 312.088 434.916 311.025 435.359 310.046C435.802 309.066 436.448 308.192 437.255 307.481C438.063 306.771 439.012 306.241 440.04 305.926C441.068 305.611 442.151 305.519 443.218 305.655L467.673 308.786C468.739 308.923 469.823 308.831 470.851 308.516C471.879 308.201 472.828 307.67 473.636 306.96C474.443 306.249 475.089 305.375 475.532 304.395C475.975 303.415 476.204 302.352 476.203 301.277V290.891Z" fill="#F2F2F2"/>
<path d="M427.117 370.021C424.907 370.019 422.788 369.14 421.225 367.577C419.662 366.014 418.783 363.895 418.781 361.685V299.472C418.762 296.004 420.055 292.657 422.401 290.103C424.747 287.548 427.973 285.976 431.43 285.701L467.929 282.585C469.079 282.487 470.237 282.628 471.33 283.001C472.423 283.374 473.427 283.97 474.277 284.75C475.127 285.531 475.806 286.48 476.271 287.538C476.735 288.595 476.975 289.737 476.975 290.891V301.277C476.975 302.461 476.723 303.631 476.235 304.711C475.747 305.79 475.035 306.752 474.146 307.535C473.257 308.317 472.212 308.901 471.079 309.248C469.947 309.594 468.754 309.696 467.579 309.545L443.124 306.414C442.166 306.291 441.193 306.374 440.269 306.657C439.346 306.94 438.493 307.417 437.768 308.055C437.042 308.693 436.461 309.479 436.063 310.359C435.665 311.239 435.459 312.194 435.458 313.16V361.685C435.456 363.896 434.576 366.016 433.012 367.578C431.448 369.141 429.328 370.02 427.117 370.021ZM468.654 284.085C468.455 284.085 468.256 284.094 468.055 284.111L431.556 287.226C428.483 287.472 425.617 288.87 423.532 291.141C421.447 293.412 420.297 296.387 420.314 299.47V361.685C420.333 363.477 421.058 365.189 422.332 366.449C423.606 367.71 425.325 368.417 427.117 368.417C428.909 368.417 430.629 367.71 431.903 366.449C433.176 365.189 433.901 363.477 433.921 361.685V313.164C433.92 311.979 434.173 310.809 434.66 309.73C435.148 308.651 435.86 307.688 436.749 306.906C437.638 306.123 438.683 305.539 439.815 305.193C440.948 304.846 442.141 304.744 443.315 304.895L467.77 308.027C468.728 308.149 469.702 308.066 470.625 307.782C471.549 307.499 472.401 307.023 473.127 306.385C473.852 305.747 474.433 304.961 474.831 304.081C475.229 303.201 475.436 302.246 475.436 301.28V290.891C475.436 289.09 474.722 287.363 473.451 286.087C472.179 284.812 470.454 284.093 468.653 284.087L468.654 284.085Z" fill="#0C0C0C"/>
<path d="M421.846 343.866C422.15 342.794 422.795 341.85 423.684 341.178C424.573 340.506 425.657 340.143 426.772 340.144C426.757 340.055 426.661 339.848 426.816 339.832L422.977 337.968C421.834 337.443 420.92 336.523 420.403 335.377C419.886 334.23 419.801 332.935 420.165 331.732C420.562 330.555 421.383 329.567 422.467 328.961C423.552 328.355 424.823 328.173 426.034 328.45C426.017 328.403 426.041 328.351 426.04 328.3L424.463 327.534C423.388 327.035 422.519 326.18 422.002 325.113C421.485 324.047 421.352 322.835 421.626 321.682C421.813 320.963 422.157 320.294 422.634 319.724C423.11 319.153 423.707 318.696 424.382 318.385C425.057 318.073 425.792 317.915 426.535 317.922C427.278 317.929 428.011 318.101 428.679 318.426L432.32 320.193C432.326 320.172 432.313 320.151 432.32 320.131C432.327 320.111 432.364 320.099 432.378 320.076C431.491 319.366 430.871 318.376 430.62 317.267C430.369 316.158 430.503 314.997 430.998 313.975C432.106 311.25 435.725 311.147 438.079 312.288L445.213 316.465C446.314 317.109 447.239 318.016 447.905 319.105C448.57 320.193 448.957 321.429 449.029 322.703C449.665 333.726 450.639 362.553 443.126 358.906L424.634 349.925C423.562 349.369 422.706 348.471 422.201 347.374C421.697 346.276 421.572 345.042 421.846 343.866Z" fill="#E98862"/>
<path d="M390.34 328.762L296.594 403.682L232.504 294.147L169.278 331.141L254.754 477.222L255.398 478.336C258.1 482.886 261.779 486.779 266.168 489.736C270.557 492.692 275.547 494.637 280.779 495.431C286.011 496.225 291.354 495.847 296.422 494.326C301.491 492.805 306.158 490.177 310.088 486.634L430.054 379.718L390.34 328.762Z" fill="#F43910"/>
<path d="M304.428 355.546C304.428 354.498 304.21 353.461 303.788 352.501C303.367 351.541 302.75 350.68 301.978 349.971C301.206 349.262 300.295 348.721 299.303 348.382C298.31 348.044 297.259 347.915 296.214 348.004L259.715 351.12C256.457 351.398 253.422 352.889 251.21 355.297C248.999 357.706 247.771 360.857 247.771 364.127V426.339C247.771 428.347 248.569 430.272 249.988 431.692C251.408 433.112 253.333 433.909 255.341 433.91C256.335 433.91 257.319 433.714 258.238 433.333C259.156 432.953 259.991 432.395 260.694 431.692C261.397 430.989 261.954 430.155 262.334 429.236C262.715 428.318 262.91 427.333 262.91 426.339V377.818C262.911 376.743 263.14 375.68 263.583 374.701C264.026 373.721 264.672 372.847 265.479 372.136C266.287 371.426 267.236 370.896 268.264 370.581C269.292 370.266 270.375 370.174 271.442 370.31L295.897 373.441C296.963 373.578 298.047 373.485 299.075 373.171C300.103 372.856 301.052 372.325 301.859 371.615C302.666 370.905 303.313 370.031 303.756 369.051C304.198 368.071 304.428 367.008 304.428 365.933V355.546Z" fill="#F2F2F2"/>
<path d="M255.341 434.676C253.13 434.674 251.011 433.796 249.448 432.233C247.884 430.67 247.005 428.551 247.003 426.34V364.127C246.984 360.659 248.277 357.312 250.623 354.758C252.969 352.203 256.194 350.631 259.652 350.356L296.15 347.24C297.301 347.142 298.459 347.284 299.552 347.656C300.644 348.029 301.648 348.625 302.498 349.406C303.349 350.187 304.028 351.136 304.492 352.193C304.956 353.25 305.196 354.392 305.196 355.546V365.933C305.196 367.117 304.944 368.288 304.456 369.367C303.969 370.446 303.257 371.408 302.368 372.191C301.479 372.973 300.434 373.557 299.301 373.904C298.169 374.25 296.976 374.352 295.802 374.202L271.347 371.07C270.389 370.947 269.415 371.03 268.491 371.313C267.568 371.596 266.715 372.073 265.99 372.711C265.264 373.349 264.683 374.135 264.285 375.015C263.887 375.895 263.681 376.85 263.681 377.816V426.338C263.679 428.549 262.799 430.669 261.236 432.232C259.672 433.796 257.552 434.675 255.341 434.676ZM296.877 348.74C296.679 348.74 296.48 348.749 296.279 348.766L259.78 351.881C256.706 352.126 253.839 353.525 251.753 355.796C249.668 358.067 248.518 361.043 248.536 364.127V426.34C248.555 428.132 249.28 429.844 250.554 431.104C251.827 432.365 253.547 433.072 255.339 433.072C257.131 433.072 258.85 432.365 260.124 431.104C261.398 429.844 262.123 428.132 262.142 426.34V377.818C262.142 376.634 262.394 375.464 262.882 374.385C263.37 373.306 264.082 372.343 264.971 371.561C265.86 370.778 266.905 370.194 268.038 369.848C269.17 369.501 270.363 369.399 271.538 369.55L295.993 372.681C296.951 372.803 297.924 372.72 298.848 372.437C299.772 372.154 300.625 371.678 301.35 371.04C302.075 370.402 302.656 369.616 303.054 368.736C303.452 367.856 303.658 366.901 303.659 365.935V355.546C303.659 353.745 302.945 352.018 301.673 350.742C300.401 349.467 298.676 348.747 296.875 348.742L296.877 348.74Z" fill="#0C0C0C"/>
<path d="M238.289 374.556C238.562 373.805 238.984 373.118 239.531 372.536C240.077 371.954 240.737 371.49 241.469 371.171C242.201 370.852 242.991 370.686 243.789 370.683C244.588 370.679 245.378 370.838 246.113 371.151C247.515 371.804 248.616 372.966 249.194 374.4C249.772 375.835 249.783 377.435 249.226 378.878L247.643 383.241L260.396 375.973C263.339 373.922 267.641 373.085 270.438 374.656C273.371 376.303 275.552 380.128 276.31 383.736C276.336 383.755 278.43 400.055 274.784 408.257C269.883 419.278 247.482 428.981 236.265 424.545L218.61 417.565L238.289 374.556Z" fill="#E98862"/>
<path d="M227.383 400.654H227.361C227.273 400.651 227.187 400.631 227.107 400.595C227.027 400.559 226.955 400.507 226.895 400.443C226.835 400.379 226.788 400.304 226.758 400.222C226.727 400.139 226.713 400.052 226.717 399.964L228.048 359.199C228.058 359.024 228.135 358.859 228.264 358.739C228.392 358.619 228.562 358.553 228.738 358.555C228.826 358.558 228.912 358.578 228.992 358.614C229.072 358.65 229.144 358.702 229.204 358.766C229.263 358.83 229.31 358.906 229.341 358.988C229.371 359.07 229.385 359.157 229.382 359.245L228.05 400.01C228.045 400.183 227.972 400.347 227.847 400.468C227.722 400.588 227.556 400.655 227.383 400.654Z" fill="#0C0C0C"/>
<path d="M231.23 378.178L120.943 410.835L83.3027 311.475L9.86636 341.094L64.7692 469.295L65.5236 471.058C69.105 479.349 75.7104 485.965 83.9963 489.559C92.2822 493.153 101.626 493.456 110.127 490.405L251.372 439.731L231.23 378.178Z" fill="#F43910"/>
<path d="M98.1749 493.158C91.1051 493.161 84.189 491.094 78.279 487.214C72.369 483.334 67.7232 477.81 64.9141 471.322L64.1598 469.559L15.2725 367.866C15.2002 367.708 15.193 367.527 15.2523 367.363C15.3117 367.199 15.4329 367.065 15.59 366.99C15.7471 366.914 15.9275 366.903 16.0926 366.959C16.2577 367.015 16.3942 367.134 16.473 367.289L65.3718 469.01L66.1384 470.801C69.6608 478.93 76.1432 485.415 84.2708 488.94C92.3984 492.466 101.563 492.768 109.905 489.785L250.535 439.326L230.799 379.003L121.132 411.477C120.977 411.523 120.81 411.51 120.663 411.441C120.515 411.373 120.398 411.253 120.333 411.105L89.6947 340.78C89.6285 340.619 89.6281 340.438 89.6936 340.276C89.759 340.115 89.8851 339.986 90.0449 339.916C90.2046 339.846 90.3853 339.842 90.5481 339.904C90.7109 339.966 90.8429 340.09 90.9159 340.248L121.316 410.033L231.038 377.539C231.204 377.49 231.383 377.507 231.537 377.588C231.691 377.669 231.807 377.806 231.86 377.971L251.999 439.524C252.053 439.689 252.041 439.868 251.965 440.024C251.889 440.18 251.755 440.3 251.591 440.358L110.355 491.036C106.448 492.44 102.327 493.158 98.1749 493.158Z" fill="#0C0C0C"/>
<path d="M102.057 417.407C101.896 417.409 101.74 417.353 101.618 417.249C101.495 417.145 101.414 417.001 101.39 416.842C101.366 416.683 101.4 416.521 101.486 416.385C101.572 416.249 101.704 416.149 101.858 416.104L120.745 410.201C120.911 410.155 121.089 410.175 121.241 410.258C121.393 410.341 121.506 410.479 121.558 410.644C121.609 410.809 121.595 410.988 121.517 411.142C121.439 411.297 121.305 411.415 121.142 411.472L102.255 417.375C102.191 417.395 102.124 417.406 102.057 417.407Z" fill="#0C0C0C"/>
<path d="M120.791 189.945L84.7746 194.45C84.3165 194.507 83.8517 194.474 83.4065 194.351C82.9614 194.229 82.5447 194.02 82.1803 193.737C81.8159 193.453 81.5109 193.101 81.2827 192.7C81.0545 192.298 80.9076 191.856 80.8503 191.398C80.7348 190.473 80.9914 189.54 81.5637 188.804C82.136 188.068 82.9772 187.59 83.9022 187.474L119.918 182.968L120.791 189.945Z" fill="#F2F2F2"/>
<path d="M84.3354 195.243C83.246 195.243 82.1978 194.827 81.4043 194.081C80.6107 193.334 80.1315 192.314 80.0641 191.226C79.9968 190.139 80.3465 189.067 81.0419 188.229C81.7373 187.39 82.7262 186.848 83.8072 186.713L119.823 182.208C119.923 182.194 120.024 182.201 120.122 182.227C120.219 182.254 120.31 182.299 120.389 182.361C120.468 182.423 120.535 182.5 120.585 182.587C120.635 182.675 120.667 182.771 120.679 182.871L121.552 189.847C121.577 190.049 121.521 190.252 121.396 190.413C121.271 190.573 121.088 190.677 120.886 190.703L84.8697 195.208C84.6925 195.231 84.514 195.243 84.3354 195.243ZM119.253 183.821L83.9973 188.232C83.274 188.322 82.6163 188.696 82.1688 189.272C81.7213 189.847 81.5208 190.577 81.6112 191.3C81.7017 192.024 82.0758 192.681 82.6512 193.129C83.2267 193.576 83.9563 193.777 84.6796 193.686L119.935 189.276L119.253 183.821Z" fill="#0C0C0C"/>
<path d="M181.889 185.867L179.95 170.365C179.62 167.722 178.252 165.318 176.149 163.682C174.046 162.046 171.379 161.313 168.735 161.644L119.093 167.853C118.705 167.903 118.321 167.976 117.943 168.071L110.619 168.987C109.309 169.15 108.045 169.57 106.898 170.222C105.751 170.874 104.744 171.746 103.934 172.788C103.124 173.829 102.528 175.02 102.178 176.292C101.829 177.565 101.733 178.893 101.898 180.202L103.836 195.704C104 197.013 104.419 198.277 105.072 199.424C105.724 200.571 106.595 201.578 107.637 202.388C108.679 203.198 109.87 203.795 111.142 204.144C112.414 204.494 113.743 204.589 115.052 204.425L164.693 198.215C165.081 198.165 165.465 198.092 165.843 197.998L173.167 197.078C174.476 196.915 175.74 196.495 176.886 195.843C178.033 195.192 179.04 194.32 179.85 193.279C180.66 192.238 181.257 191.048 181.607 189.776C181.957 188.504 182.053 187.176 181.889 185.867Z" fill="#F2F2F2"/>
<path d="M113.798 205.271C111.165 205.265 108.624 204.301 106.651 202.558C104.677 200.815 103.407 198.412 103.077 195.8L101.137 180.298C100.781 177.453 101.571 174.583 103.331 172.319C105.091 170.055 107.679 168.583 110.524 168.227L117.807 167.317C118.2 167.219 118.598 167.145 119 167.093L168.642 160.884C170.051 160.707 171.481 160.81 172.851 161.186C174.22 161.562 175.502 162.205 176.623 163.076C177.744 163.948 178.682 165.032 179.384 166.267C180.086 167.501 180.537 168.862 180.713 170.271L182.652 185.772C182.829 187.181 182.726 188.611 182.35 189.98C181.974 191.35 181.332 192.632 180.46 193.753C179.588 194.874 178.504 195.812 177.269 196.514C176.035 197.216 174.674 197.668 173.265 197.844L165.982 198.754C165.589 198.851 165.191 198.925 164.789 198.977L115.147 205.187C114.7 205.243 114.249 205.271 113.798 205.271ZM170.001 162.331C169.609 162.333 169.218 162.358 168.83 162.408L119.188 168.617C118.83 168.664 118.476 168.732 118.126 168.819C118.097 168.826 118.068 168.832 118.038 168.835L110.714 169.751C108.273 170.059 106.054 171.323 104.544 173.266C103.034 175.208 102.356 177.67 102.659 180.111L104.598 195.613C104.906 198.054 106.17 200.272 108.112 201.783C110.054 203.293 112.516 203.971 114.957 203.668L164.6 197.459C164.958 197.412 165.312 197.345 165.662 197.257C165.691 197.25 165.72 197.245 165.75 197.241L173.072 196.325C175.513 196.017 177.733 194.753 179.243 192.811C180.753 190.869 181.432 188.407 181.129 185.965L179.19 170.464C178.908 168.224 177.82 166.163 176.129 164.667C174.437 163.172 172.259 162.344 170.001 162.338V162.331Z" fill="#0C0C0C"/>
<path d="M177.662 160.603L128.021 166.813C122.515 167.501 118.611 172.523 119.299 178.028L121.238 193.529C121.927 199.035 126.948 202.94 132.454 202.251L182.095 196.042C187.601 195.353 191.505 190.331 190.817 184.826L188.878 169.325C188.189 163.819 183.168 159.914 177.662 160.603Z" fill="#F2F2F2"/>
<path d="M131.186 203.095C128.554 203.089 126.015 202.124 124.044 200.38C122.073 198.636 120.805 196.234 120.479 193.623L118.54 178.121C118.363 176.712 118.465 175.282 118.841 173.912C119.217 172.542 119.859 171.26 120.731 170.139C121.603 169.018 122.687 168.079 123.921 167.377C125.156 166.675 126.517 166.223 127.926 166.047L177.569 159.838C180.413 159.486 183.282 160.276 185.545 162.036C187.807 163.795 189.28 166.381 189.64 169.225L191.578 184.726C191.931 187.571 191.141 190.44 189.381 192.703C187.622 194.966 185.036 196.438 182.192 196.797L132.55 203.007C132.097 203.064 131.642 203.094 131.186 203.095ZM178.917 161.289C178.53 161.289 178.143 161.313 177.759 161.362L128.116 167.571C126.907 167.722 125.739 168.11 124.68 168.712C123.621 169.314 122.69 170.119 121.942 171.081C121.194 172.043 120.643 173.143 120.32 174.318C119.997 175.493 119.909 176.72 120.061 177.929L122 193.431C122.15 194.64 122.538 195.808 123.14 196.868C123.743 197.927 124.548 198.857 125.51 199.606C126.472 200.354 127.572 200.905 128.748 201.228C129.923 201.55 131.15 201.638 132.359 201.487L182.002 195.277C184.443 194.969 186.662 193.705 188.172 191.763C189.682 189.82 190.36 187.359 190.057 184.917L188.118 169.42C187.835 167.178 186.745 165.115 185.052 163.619C183.358 162.122 181.177 161.294 178.917 161.289Z" fill="#0C0C0C"/>
</g>
<defs>
<clipPath id="clip0_3_32">
<rect width="755.675" height="559" fill="white" transform="translate(-67)"/>
</clipPath>
</defs>
</svg>
